<svg
                                xmlns="http://www.w3.org/2000/svg"
                                width="24"
                                height="24"
                                viewBox="0 0 24 24"
                                fill="none"
                            >
                                <title id="title">phone_support</title>
                                <path
                                    d="M18.1912 14.2183C17.5384 13.5738 16.7234 13.5738 16.0748 14.2183C15.58 14.7089 15.0852 15.1996 14.5987 15.6985C14.4656 15.8358 14.3534 15.8649 14.1912 15.7734C13.871 15.5988 13.5301 15.4574 13.2224 15.2661C11.7879 14.3638 10.5862 13.2037 9.52176 11.8981C8.99369 11.2495 8.52384 10.5551 8.19535 9.77339C8.12883 9.61538 8.1413 9.51143 8.2702 9.38253C8.765 8.90436 9.24733 8.41372 9.73382 7.92308C10.4116 7.24116 10.4116 6.44283 9.72966 5.75675C9.34296 5.3659 8.95627 4.98337 8.56957 4.59251C8.17041 4.19335 7.7754 3.79002 7.37207 3.39501C6.71926 2.75883 5.90429 2.75883 5.25565 3.39917C4.75668 3.88981 4.27851 4.39293 3.77124 4.87526C3.30138 5.32016 3.06438 5.86486 3.01448 6.50104C2.93548 7.53638 3.18912 8.51351 3.54671 9.46569C4.27851 11.4366 5.39286 13.1871 6.74421 14.7921C8.56957 16.9626 10.7484 18.6798 13.2972 19.9189C14.4448 20.4761 15.634 20.9044 16.9272 20.975C17.817 21.0249 18.5904 20.8004 19.2099 20.106C19.634 19.632 20.1122 19.1996 20.5613 18.7464C21.2265 18.0728 21.2307 17.2578 20.5696 16.5925C19.7796 15.7983 18.9854 15.0083 18.1912 14.2183Z"
                                    stroke="#404553"
                                    stroke-width="1.5"
                                ></path>
                            </svg>